<svg xmlns:dc="http://purl.org/dc/elements/1.1/" xmlns:cc="http://creativecommons.org/ns#" xmlns:rdf="http://www.w3.org/1999/02/22-rdf-syntax-ns#" xmlns:svg="http://www.w3.org/2000/svg" xmlns="http://www.w3.org/2000/svg" xmlns:sodipodi="http://sodipodi.sourceforge.net/DTD/sodipodi-0.dtd" xmlns:inkscape="http://www.inkscape.org/namespaces/inkscape" width="428.40869" height="249.61028" id="svg2" version="1.1" inkscape:version="0.47 r22583" sodipodi:docname="triceratops.svg">
  <defs id="defs4">
    <inkscape:perspective sodipodi:type="inkscape:persp3d" inkscape:vp_x="0 : 526.18109 : 1" inkscape:vp_y="0 : 1000 : 0" inkscape:vp_z="744.09448 : 526.18109 : 1" inkscape:persp3d-origin="372.04724 : 350.78739 : 1" id="perspective10"></inkscape:perspective>
    <inkscape:perspective id="perspective2824" inkscape:persp3d-origin="0.5 : 0.33333333 : 1" inkscape:vp_z="1 : 0.5 : 1" inkscape:vp_y="0 : 1000 : 0" inkscape:vp_x="0 : 0.5 : 1" sodipodi:type="inkscape:persp3d"></inkscape:perspective>
  </defs>
  <sodipodi:namedview id="base" pagecolor="#ffffff" bordercolor="#666666" borderopacity="1.0" inkscape:pageopacity="0.0" inkscape:pageshadow="2" inkscape:zoom="0.9899495" inkscape:cx="143.39093" inkscape:cy="185.96709" inkscape:document-units="px" inkscape:current-layer="layer1" showgrid="false" inkscape:window-width="1600" inkscape:window-height="838" inkscape:window-x="-8" inkscape:window-y="-8" inkscape:window-maximized="1"></sodipodi:namedview>
  <metadata id="metadata7">
    <rdf:RDF>
      <cc:Work rdf:about="">
        <dc:format>image/svg+xml</dc:format>
        <dc:type rdf:resource="http://purl.org/dc/dcmitype/StillImage"></dc:type>
        <dc:title></dc:title>
      </cc:Work>
    </rdf:RDF>
  </metadata>
  <g inkscape:label="Camada 1" inkscape:groupmode="layer" id="layer1" transform="translate(-33.35034,-459.65518)">
    <path style="fill:#bdbdbd;fill-opacity:1;stroke:none" d="m 134.17121,645.27071 c 0,0 1.30916,6.70292 1.51523,10.10153 0.36696,6.05214 -1.72914,13.96655 -0.50508,18.18274 1.22406,4.21619 2.27285,7.82868 2.27285,7.82868 0.24949,0.85935 0.82948,-0.008 2.0203,1.76777 1.19082,1.77547 2.06936,6.44097 3.283,9.59645 0,0 0.39978,2.4892 1.26269,3.283 1.54882,1.42478 6.06091,1.76776 6.06091,1.76776 l 4.04061,1.76777 13.63706,1.01015 c 1.20197,0.089 2.11169,1.23116 3.283,1.51523 1.88336,0.45676 5.80838,0.25254 5.80838,0.25254 1.05377,0.0458 1.83504,1.988 2.77792,1.51523 1.06419,-0.5336 -0.40289,-2.76558 0.50507,-3.53554 2.88982,-2.45062 8.35198,2.55102 11.36422,0.25254 0.55185,-0.42109 0.67344,-1.34687 0.50508,-2.0203 0,0 -1.87966,-2.95829 -1.01016,-4.04061 1.8987,-2.36341 9.46741,3.26075 9.09138,0.25253 0,0 -0.11174,-2.7415 -0.50508,-4.04061 -0.49092,-1.62139 -3.24627,-3.1592 -2.27284,-4.54568 0.82797,-1.17928 3.46517,1.68435 4.29314,0.50507 1.18975,-1.69458 -2.77791,-5.55583 -2.77791,-5.55583 l -2.02031,-3.03046 12.87945,1.01015 c 0.63913,0.0501 0.68095,-1.13128 0.75761,-1.76777 0.0612,-0.50837 -0.25254,-1.51523 -0.25254,-1.51523 -0.37263,-2.23576 5.12294,2.71931 6.56599,1.76777 1.44305,-0.95154 0.7283,-2.36617 0.50508,-3.53553 -0.12726,-0.66664 -1.37593,-1.1961 -1.01015,-1.76777 1.04742,-1.63702 4.43416,1.87929 5.80837,0.50508 l 1.01016,-1.01016 -2.52539,-4.54568 1.51523,-0.25254 -1.01015,-1.51523 c 0,0 -11.35935,-6.13188 -14.64721,-11.36422 -0.64126,-1.02051 -0.75762,-3.53553 -0.75762,-3.53553 -0.57127,-2.6659 -1.34496,-5.35604 -1.26269,-8.08122 0.0832,-2.75618 1.76777,-8.08122 1.76777,-8.08122 0,0 8.03239,-1.24469 11.86929,-2.52538 2.46499,-0.82277 7.07107,-3.283 7.07107,-3.283 0,0 -1.51524,6.81853 -1.76777,8.33376 -0.25254,1.51523 0.0234,7.3057 0.75762,10.85914 0.66805,3.23299 1.8569,6.36653 3.28299,9.34391 1.24117,2.59131 4.54569,7.32361 4.54569,7.32361 l 3.53553,12.12183 c 0.89598,3.07193 3.09653,5.61854 4.29315,8.5863 1.05537,2.61745 2.52538,8.08122 2.52538,8.08122 0.6821,2.18273 -0.1837,4.73442 0.75762,6.81853 0.51511,1.14048 2.52538,2.77791 2.52538,2.77791 1.39854,1.53839 3.85348,1.56508 5.80838,2.27285 1.75209,0.63435 3.48251,1.3716 5.3033,1.76777 2.31632,0.50399 7.07107,0.75761 7.07107,0.75761 1.66772,0.17868 3.14054,1.25971 4.79822,1.51523 1.49754,0.23084 4.54569,0 4.54569,0 0.60703,0 1.31282,-0.43786 1.51523,-1.01015 0.47053,-1.33035 -2.09542,-2.90141 -1.26269,-4.04061 0.54161,-0.74093 4.13146,0.32297 6.06091,1.01015 1.27867,0.4554 2.18629,2.16841 3.53553,2.0203 1.24394,-0.13655 3.52877,-1.52425 2.77792,-2.52538 0,0 -0.85204,-0.59999 -0.75761,-1.01015 0.14295,-0.62087 2.65268,0.97712 4.04061,1.01015 0.85822,0.0204 2.07846,0.22789 2.52538,-0.50507 0.63808,-1.04648 -2.15778,-3.10518 -1.01015,-3.53554 0,0 3.09715,-0.42939 4.04061,-1.51523 0.50903,-0.58585 0.77031,-1.54347 0.50508,-2.27284 0,0 -0.74442,-1.82914 -1.01016,-2.77792 -0.23153,-0.82665 0.0724,-1.89017 -0.50507,-2.52538 l -2.52538,-2.77792 c -2.24581,-2.4704 -5.88836,-3.28284 -8.33376,-5.55584 -0.703,-0.65344 -1.24022,-1.47103 -1.76777,-2.27284 -1.05611,-1.60516 -2.77792,-5.05077 -2.77792,-5.05077 -0.98705,-1.79464 -0.33132,-4.1285 -1.01015,-6.06091 -0.79941,-2.27567 -3.53554,-6.31345 -3.53554,-6.31345 -1.74986,-3.12474 -4.18001,-5.9433 -5.3033,-9.34392 -1.30341,-3.9459 -1.51523,-12.37436 -1.51523,-12.37436 0.17555,-2.12587 5.09333,-6.5713 8.83884,-7.57615 2.902,-0.77855 8.83883,1.76777 8.83883,1.76777 2.72897,0.5458 5.66233,-1.28523 8.33376,-0.50508 2.19811,0.64192 5.55584,4.04061 5.55584,4.04061 1.29171,0.93942 2.95113,1.60692 4.54569,1.51523 2.78224,-0.15998 5.72242,-4.1662 7.57614,-3.53553 1.07603,0.36609 0.0564,4.97169 0.75762,7.3236 0.83911,2.81421 4.04061,7.82869 4.04061,7.82869 l 3.28299,3.78807 c 1.00606,1.16084 0.28258,3.08485 0.75762,4.54568 0.58209,1.79004 2.52538,5.05077 2.52538,5.05077 0.92597,1.85195 2.26978,3.54862 2.77792,5.55584 1.28151,5.06214 0.50507,15.65736 0.50507,15.65736 0.0326,1.00963 -0.43759,2.12001 0,3.03046 0.93398,1.94325 5.05077,4.04061 5.05077,4.04061 2.85391,2.28312 7.01157,2.11977 10.6066,2.77792 3.91371,0.71649 11.86928,1.26269 11.86928,1.26269 0,0 3.0148,0.63091 4.5457,0.75761 0.58726,0.0486 1.7678,0 1.7678,0 0.75761,0 0,-1.51523 0,-2.27284 0,-0.58926 0,-1.76777 0,-1.76777 0,-1.5972 2.95686,1.35209 4.5457,1.51523 1.43337,0.14718 4.2931,-0.50507 4.2931,-0.50507 0.79313,-0.0933 0.0963,-1.82513 0.7576,-2.27285 1.18707,-0.80369 4.2932,0.25254 4.2932,0.25254 0,0 2.46261,0.72424 3.283,0 0.50878,-0.44915 -0.42093,-1.93612 0.2525,-2.0203 l 4.0406,-0.50508 c 1.12066,-0.14008 -0.50505,-2.02031 -1.5152,-3.03046 -1.01015,-1.01015 -4.68973,-4.23655 -7.0711,-6.31345 -2.25014,-1.96245 -4.6643,-2.06806 -6.8185,-5.80838 -2.1542,-3.74032 -1.65437,-11.19084 -3.0305,-16.66752 -1.40128,-5.57678 -3.77731,-10.87103 -5.3033,-16.41498 -0.80206,-2.91389 -2.0203,-8.83883 -2.0203,-8.83883 -0.80678,-3.52966 2.29627,-6.87042 3.283,-10.35406 0.85129,-3.00549 1.18801,-6.16209 2.2729,-9.09138 l 2.5253,-6.81853 c 0.70652,-1.90767 3.65131,-1.81057 5.5559,-2.52538 2.46844,-0.92642 5.29832,-0.945 7.5761,-2.27284 2.41747,-1.40927 3.52161,-4.63271 6.0609,-5.80838 2.22711,-1.03113 4.93452,-0.19589 7.3236,-0.75761 2.80057,-0.65847 8.0813,-3.03046 8.0813,-3.03046 3.98332,-1.49373 7.43385,-4.18037 11.3642,-5.80838 2.77918,-1.15118 8.5863,-2.77792 8.5863,-2.77792 4.02216,-1.30129 8.39204,-1.35922 12.3743,-2.77792 2.83706,-1.01072 8.0813,-4.04061 8.0813,-4.04061 3.22266,-1.61131 6.15513,-3.9068 8.5863,-6.56599 2.04423,-1.77706 2.10287,-5.9844 4.2931,-6.56599 0.765,-0.20314 0.2526,2.52538 0.2526,2.52538 0,0 2.34505,-1.14198 3.2829,-2.0203 2.33561,-2.18736 5.5559,-7.82869 5.5559,-7.82869 1.46562,-2.06517 2.2728,-6.31345 2.0203,-7.3236 -0.2525,-1.01015 0.60972,-6.35493 -1.0102,-8.83884 l -3.788,-5.80837 c -1.9209,-2.94543 -4.85817,-5.18922 -7.8287,-7.07107 -1.84888,-1.17127 -6.0609,-2.52538 -6.0609,-2.52538 -2.58651,-1.07771 -2.64154,-5.01543 -4.5457,-7.07107 -2.65433,-2.86549 -9.3439,-7.07107 -9.3439,-7.07107 0,0 -2.01303,5.07129 -3.7881,7.07107 -2.04635,2.30541 -7.5761,5.3033 -7.5761,5.3033 l -4.0407,-1.01015 -7.3236,-2.52538 7.5762,-6.56599 c 0,0 7.43588,-4.84032 11.1117,-7.32361 3.30867,-2.23525 6.5692,-4.54097 9.8489,-6.81853 0,0 6.11891,-4.12784 9.0914,-6.31345 1.54653,-1.13713 3.26156,-2.10872 4.5457,-3.53554 l 4.5457,-5.05076 2.2728,-1.76777 1.2627,-2.27284 -0.7576,-1.51523 -3.0304,0 c 0,0 -5.40013,3.80814 -8.3338,5.3033 -3.06403,1.56161 -6.31816,2.74913 -9.5965,3.78807 -2.72481,0.86352 -7.071,2.02031 -8.3337,2.02031 -1.2627,0 -16.9201,5.80838 -16.9201,5.80838 l -8.5863,5.05076 9.5965,-9.09137 11.6167,-8.08123 7.8287,-6.31345 6.566,-7.82868 5.8084,-7.07107 0.7576,-2.77792 -1.2627,-1.01015 -2.2728,1.76777 c 0,0 -7.52652,5.26849 -11.6168,7.3236 -3.54807,1.78268 -11.1117,4.29315 -11.1117,4.29315 -4.98661,1.92664 -9.62231,4.66202 -14.3946,7.07107 -4.57106,2.30746 -9.51732,4.03028 -13.6371,7.07107 0,0 -7.18237,5.0747 -10.6066,7.82868 -2.78919,2.24325 -6.16983,4.04478 -8.0812,7.07107 l -3.0305,4.79822 -8.5863,0 -9.849,-5.80838 -12.12179,-8.33375 c 0,0 -4.96512,-5.79765 -8.33376,-7.32361 -5.97082,-2.1994 -10.64657,0.45464 -15.65737,3.53553 -2.59183,1.44095 -7.3236,5.05077 -7.3236,5.05077 -2.15826,1.48846 -4.34559,3.12756 -5.80838,5.3033 -0.95102,1.41453 -1.76777,4.79822 -1.76777,4.79822 0,0 -13.13187,-5.89485 -19.69797,-8.83883 -11.57304,-5.1889 -23.57437,-9.01148 -35.60788,-12.87945 -23.40829,-7.5242 -49.9686,-5.9914 -71.21575,6.56599 -17.68345,10.45119 -37.98181,26.72283 -45.96194,37.88072 -6.94417,9.7094 -12.82619,20.38086 -17.67767,31.31473 -2.85019,6.42352 -5.37878,13.07173 -6.81853,19.95052 0,0 -2.849271,14.51916 -4.545687,21.71828 -1.217591,5.16712 -2.711418,10.26528 -4.04061,15.40482 0,0 -2.280721,9.83471 -3.78807,14.64721 -1.233914,3.93951 -2.165634,8.07897 -4.29315,11.61676 -1.628436,2.70788 -3.919173,5.00907 -6.31345,7.07107 -2.21142,1.90452 -4.565679,3.84355 -7.32361,4.79822 0,0 -4.290479,1.84124 -6.56599,2.27284 -1.986641,0.37681 -4.04235,0.37128 -6.06092,0.25254 0,0 -2.88441,0.01 -4.29314,-0.25254 -7.945725,-1.47896 -13.109432,-12.86507 -19.1929,-12.12183 -2.301824,0.28122 -0.455978,8.17697 1.51523,10.6066 l 10.85914,13.38453 c 1.89897,2.34059 4.754955,3.72643 7.3236,5.3033 2.983893,1.83179 5.977331,3.83634 9.34391,4.79822 0,0 6.97328,2.46536 10.60661,3.03046 2.746175,0.42712 5.562567,0.46338 8.33375,0.25254 3.243264,-0.24676 6.477419,-0.84511 9.59645,-1.76777 3.582804,-1.05985 7.064384,-2.52178 10.354067,-4.29315 0,0 6.75456,-3.22302 9.84898,-5.3033 3.62265,-2.43539 7.09441,-5.16959 10.10153,-8.33376 2.5284,-2.66045 4.5871,-6.18767 6.56599,-8.83883 1.97888,-2.65116 5.3033,-7.07107 5.3033,-7.07107 z" id="path2830" sodipodi:nodetypes="cszszssccssssssssssssccssszsssccccssscsczsscsssssssssssssssssssssssssssssssssssssscsssssssscssssssscssszszssssssssssssssscscsszssssscsccccsssscccccsszccccccccccssssssccccccsscsssssssssssssssssssssssssszc"/>
  </g>
</svg>